<?xml version="1.0" encoding="UTF-8"?>
<svg width="79px" height="32px" viewBox="0 0 79 32" version="1.1" xmlns="http://www.w3.org/2000/svg" xmlns:xlink="http://www.w3.org/1999/xlink">
    <!-- Generator: Sketch 49 (51002) - http://www.bohemiancoding.com/sketch -->
    <title>Logo white Copy 3</title>
    <desc>Created with Sketch.</desc>
    <defs></defs>
    <g id="Page-1" stroke="none" stroke-width="1" fill="none" fill-rule="evenodd">
        <g id="Gout-iPad" transform="translate(-23.000000, -56.000000)">
            <g id="Group" transform="translate(0.000000, -16.000000)">
                <g id="Logo-white-Copy-3" transform="translate(23.000000, 72.000000)">
                    <polygon id="Fill-1" fill="#FFFFFF" points="0 31.8736173 78.3641739 31.8736173 78.3641739 0 0 0"></polygon>
                    <polyline id="Fill-2" fill="#005EB8" points="7.61878364 3.05340015 16.0882931 3.05340015 21.290242 20.7169274 21.3620565 20.7169274 24.9256217 3.05340015 31.3263207 3.05340015 25.9475976 28.5250398 17.5070901 28.5250398 12.2001815 10.8998533 12.128367 10.8998533 8.59794695 28.5250398 2.19724799 28.5250398 7.61878364 3.05340015"></polyline>
                    <polyline id="Fill-3" fill="#005EB8" points="33.8343046 3.05340015 40.6318248 3.05340015 38.6348288 12.7979503 46.6697683 12.7979503 48.6713678 3.05340015 55.468888 3.05340015 50.1951245 28.5250398 43.3976044 28.5250398 45.652396 17.6154858 37.612853 17.6154858 35.3580613 28.5250398 28.5605411 28.5250398 33.8343046 3.05340015"></polyline>
                    <path d="M73.3580682,8.81975327 C72.0492947,8.20122032 70.2677422,7.65474946 67.7597584,7.65474946 C65.0703968,7.65474946 62.8874196,8.05293871 62.8874196,10.0993173 C62.8874196,13.708889 72.7421206,12.3618822 72.7421206,20.0983944 C72.7421206,27.1396923 66.2309378,28.9661891 60.3412267,28.9661891 C57.7232193,28.9661891 54.7042475,28.3430368 52.4881252,27.6478224 L54.0883,22.4662809 C55.430679,23.3434982 58.1246441,23.9283098 60.3412267,23.9283098 C62.4523894,23.9283098 65.7581589,23.5255012 65.7581589,20.8989304 C65.7581589,16.8103306 55.9034579,18.3439597 55.9034579,11.1585377 C55.9034579,4.58702928 61.6500003,2.61733211 67.2151649,2.61733211 C70.3436999,2.61733211 73.286714,2.94807863 74.9964519,3.74815262 L73.3580682,8.81975327" id="Fill-4" fill="#005EB8"></path>
                </g>
            </g>
        </g>
    </g>
</svg>